<svg width="18" height="19" viewBox="0 0 18 19" fill="none" xmlns="http://www.w3.org/2000/svg">
<g clip-path="url(#clip0_1_377)">
<path d="M17.6293 3.89393H7.13207C7.05854 3.88672 6.98457 3.90073 6.91732 3.93461C6.85007 3.96848 6.7918 4.02108 6.74814 4.08732C6.70448 4.15356 6.6769 4.23121 6.66806 4.31277C6.65923 4.39434 6.66944 4.47706 6.69771 4.55295L8.35814 9.96586C8.40652 10.1153 8.49379 10.2452 8.60881 10.3392C8.72383 10.4332 8.8614 10.487 9.00398 10.4936H15.8856C16.0283 10.487 16.1659 10.4332 16.2811 10.3392C16.3962 10.2452 16.4835 10.1152 16.532 9.96571L17.9781 4.42318C18.0008 4.36221 18.0089 4.2958 18.0017 4.23033C17.9946 4.16486 17.9724 4.10253 17.9374 4.04935C17.9024 3.99617 17.8556 3.95393 17.8016 3.92668C17.7477 3.89943 17.6883 3.88811 17.6293 3.89379V3.89393Z" fill="black"/>
<path d="M9.6517 16.7299C9.6517 17.0754 9.55962 17.4132 9.38711 17.7006C9.21459 17.9879 8.96939 18.2118 8.68252 18.3441C8.39564 18.4763 8.07997 18.5109 7.77542 18.4435C7.47087 18.3761 7.19113 18.2097 6.97156 17.9653C6.75199 17.721 6.60246 17.4097 6.54189 17.0707C6.48131 16.7318 6.5124 16.3805 6.63123 16.0612C6.75006 15.742 6.95129 15.4691 7.20947 15.2771C7.46765 15.0851 7.77119 14.9827 8.08171 14.9827C8.28788 14.9827 8.49204 15.0279 8.68252 15.1157C8.873 15.2035 9.04607 15.3322 9.19186 15.4944C9.33764 15.6567 9.45329 15.8493 9.53219 16.0612C9.61109 16.2732 9.6517 16.5004 9.6517 16.7299Z" fill="black"/>
<path d="M16.2956 16.7511C16.2956 17.0967 16.2035 17.4345 16.031 17.7218C15.8585 18.0091 15.6133 18.2331 15.3264 18.3653C15.0395 18.4976 14.7238 18.5322 14.4193 18.4648C14.1147 18.3973 13.835 18.2309 13.6154 17.9866C13.3959 17.7422 13.2463 17.4309 13.1857 17.092C13.1252 16.7531 13.1563 16.4017 13.2751 16.0825C13.3939 15.7632 13.5951 15.4904 13.8533 15.2984C14.1115 15.1064 14.4151 15.0039 14.7256 15.0039C15.1419 15.0041 15.5411 15.1883 15.8355 15.5159C16.1299 15.8435 16.2953 16.2878 16.2956 16.7511Z" fill="black"/>
<path d="M16.6117 12.2713H7.42712L3.7512 0.5H0.889124C0.653314 0.5 0.427162 0.604249 0.260418 0.789815C0.0936753 0.97538 0 1.22706 0 1.48949C0 1.75192 0.0936753 2.0036 0.260418 2.18916C0.427162 2.37473 0.653314 2.47898 0.889124 2.47898H2.48689L6.16281 14.2502H16.6117C16.7285 14.2502 16.8441 14.2247 16.952 14.1749C17.0598 14.1252 17.1578 14.0523 17.2404 13.9604C17.323 13.8686 17.3885 13.7595 17.4331 13.6394C17.4778 13.5194 17.5008 13.3907 17.5008 13.2608C17.5008 13.1308 17.4778 13.0021 17.4331 12.8821C17.3885 12.762 17.323 12.653 17.2404 12.5611C17.1578 12.4692 17.0598 12.3963 16.952 12.3466C16.8441 12.2969 16.7285 12.2713 16.6117 12.2713Z" fill="black"/>
</g>
<defs>
<clipPath id="clip0_1_377">
<rect width="18" height="18" fill="white" transform="translate(0 0.5)"/>
</clipPath>
</defs>
</svg>
