<?xml version="1.0" standalone="no"?>
<!DOCTYPE svg PUBLIC "-//W3C//DTD SVG 20010904//EN"
 "http://www.w3.org/TR/2001/REC-SVG-20010904/DTD/svg10.dtd">
<svg version="1.0" xmlns="http://www.w3.org/2000/svg"
 width="1408.000000pt" height="1408.000000pt" viewBox="0 0 1408.000000 1408.000000"
 preserveAspectRatio="xMidYMid meet">
<metadata>
Created by potrace 1.14, written by Peter Selinger 2001-2017
</metadata>
<g transform="translate(0.000000,1408.000000) scale(0.100000,-0.100000)"
fill="#000000" stroke="none">
<path d="M2778 14017 c-20 -10 -48 -35 -60 -55 l-23 -37 2 -6900 c0 -3795 3
-6908 5 -6917 7 -32 46 -75 81 -91 32 -16 351 -17 4270 -17 l4234 0 33 23 c18
12 43 35 54 50 l21 28 1 1245 c1 684 4 1250 7 1259 4 8 3 16 -1 19 -9 5 -6
131 2 145 4 5 3 12 -2 15 -9 5 -7 130 2 145 4 5 3 12 -2 15 -9 5 -7 130 2 145
4 5 3 12 -2 15 -9 5 -7 130 2 145 4 5 3 12 -2 15 -9 5 -7 130 2 145 4 5 3 12
-2 15 -9 5 -7 130 2 145 4 5 3 12 -2 15 -7 4 -8 109 -2 141 1 6 2 15 1 20 -1
6 -2 2292 -2 5080 0 3052 -4 5084 -10 5106 -9 38 -51 81 -90 95 -13 5 -1927 9
-4253 9 -4119 1 -4231 0 -4268 -18z m7906 -706 l26 -24 0 -3196 0 -3196 -1808
-1808 -1807 -1807 -40 2 c-37 3 -106 70 -1844 1809 l-1806 1805 0 3190 c1
3472 -3 3223 55 3242 14 5 1639 8 3612 8 l3586 -1 26 -24z m-5511 -9192 c974
-974 1783 -1777 1798 -1785 32 -16 122 -12 145 7 8 6 14 8 14 4 0 -4 799 792
1776 1769 977 977 1777 1776 1779 1776 2 0 3 -1154 3 -2565 l1 -2565 -24 -28
c-13 -16 -30 -29 -37 -30 -52 -5 -1108 -3 -1117 2 -6 4 -11 4 -11 -1 0 -9
-1241 -8 -1265 1 -8 3 -15 2 -15 -2 0 -9 -4731 -7 -4765 2 -14 4 -33 18 -42
33 -17 26 -18 159 -18 2590 -1 1410 1 2563 3 2563 3 0 801 -797 1775 -1771z"/>
<path d="M5568 11724 c-4 -4 -97 -7 -207 -8 -184 -1 -201 -3 -221 -21 -53 -48
-50 58 -49 -1782 0 -940 4 -1735 9 -1768 22 -158 27 -186 56 -295 33 -125 77
-243 137 -365 27 -55 48 -102 47 -104 -1 -2 5 -8 14 -13 9 -5 16 -15 16 -23 0
-7 6 -20 13 -27 7 -7 23 -29 35 -49 12 -20 34 -52 49 -71 16 -20 35 -46 43
-58 39 -57 195 -215 290 -294 104 -85 218 -163 300 -204 19 -9 37 -19 40 -22
24 -26 354 -152 432 -165 15 -3 56 -12 90 -19 65 -15 133 -25 206 -31 22 -2
45 -6 51 -10 6 -3 11 -2 11 4 0 7 9 8 23 3 18 -7 202 -9 202 -2 0 1 25 3 55 4
113 6 284 38 413 78 40 12 74 22 77 23 24 8 234 97 245 105 6 4 37 22 70 40
33 18 74 43 92 56 17 13 36 24 42 24 6 0 11 5 11 10 0 6 5 10 11 10 11 0 127
90 193 150 211 191 395 448 495 690 12 30 26 64 31 75 32 77 75 226 85 300 3
17 8 44 11 60 4 17 8 41 10 55 1 14 6 45 9 70 4 25 8 812 9 1750 1 1607 0
1707 -16 1740 -30 60 -67 74 -193 76 -60 1 -114 3 -120 4 -5 1 -14 2 -20 0 -5
-1 -78 -2 -162 -2 -131 0 -156 -3 -183 -19 -64 -39 -60 75 -61 -1771 0 -964
-4 -1707 -10 -1738 -5 -30 -11 -68 -13 -85 -9 -59 -18 -90 -52 -183 -81 -216
-222 -408 -393 -536 -31 -22 -58 -43 -61 -46 -6 -7 -77 -49 -142 -83 -51 -27
-218 -90 -218 -81 0 2 -8 0 -17 -5 -10 -5 -34 -12 -53 -15 -19 -3 -53 -9 -75
-13 -51 -10 -315 -9 -380 1 -27 4 -71 13 -97 21 -27 8 -48 11 -48 7 0 -3 -5
-1 -12 6 -7 7 -18 12 -25 12 -14 0 -203 80 -218 92 -5 5 -39 27 -75 49 -36 23
-66 45 -68 50 -2 5 -8 9 -14 9 -18 0 -191 180 -240 250 -26 36 -66 104 -91
151 -47 90 -111 274 -102 290 4 5 2 9 -2 9 -5 0 -9 10 -10 23 0 12 -5 48 -10
81 -7 37 -10 674 -10 1741 -1 1841 4 1718 -60 1761 -27 18 -46 22 -108 20 -41
0 -76 3 -78 7 -1 5 -6 5 -9 1z"/>
</g>
</svg>
