<svg width="30" height="28" viewBox="0 0 30 28" fill="none" xmlns="http://www.w3.org/2000/svg">
<path d="M15.0067 7.26172C10.7477 7.26172 7.31248 10.2676 7.31248 13.9941C7.31248 17.7207 10.7477 20.7266 15.0067 20.7266C19.2656 20.7266 22.7009 17.7207 22.7009 13.9941C22.7009 10.2676 19.2656 7.26172 15.0067 7.26172ZM15.0067 18.3711C12.2544 18.3711 10.0044 16.4082 10.0044 13.9941C10.0044 11.5801 12.2477 9.61718 15.0067 9.61718C17.7656 9.61718 20.0089 11.5801 20.0089 13.9941C20.0089 16.4082 17.7589 18.3711 15.0067 18.3711ZM24.8102 6.98633C24.8102 7.85937 24.0067 8.55664 23.0156 8.55664C22.0178 8.55664 21.221 7.85351 21.221 6.98633C21.221 6.11914 22.0245 5.41601 23.0156 5.41601C24.0067 5.41601 24.8102 6.11914 24.8102 6.98633ZM29.9062 8.58007C29.7924 6.47656 29.2433 4.61328 27.4821 3.07812C25.7276 1.54297 23.5982 1.0625 21.1942 0.957031C18.7165 0.833984 11.2902 0.833984 8.81248 0.957031C6.41516 1.05664 4.2857 1.53711 2.52454 3.07226C0.763379 4.60742 0.220969 6.4707 0.100433 8.57421C-0.0401916 10.7422 -0.0401916 17.2402 0.100433 19.4082C0.214272 21.5117 0.763379 23.375 2.52454 24.9101C4.2857 26.4453 6.40846 26.9258 8.81248 27.0312C11.2902 27.1543 18.7165 27.1543 21.1942 27.0312C23.5982 26.9316 25.7276 26.4512 27.4821 24.9101C29.2366 23.375 29.7857 21.5117 29.9062 19.4082C30.0468 17.2402 30.0468 10.748 29.9062 8.58007ZM26.7053 21.7344C26.183 22.8828 25.1718 23.7676 23.8526 24.2305C21.8772 24.916 17.1897 24.7578 15.0067 24.7578C12.8236 24.7578 8.12945 24.9101 6.1607 24.2305C4.8482 23.7734 3.83704 22.8887 3.30802 21.7344C2.52454 20.0058 2.70534 15.9043 2.70534 13.9941C2.70534 12.084 2.53124 7.97656 3.30802 6.2539C3.83034 5.10547 4.8415 4.2207 6.1607 3.75781C8.13614 3.07226 12.8236 3.23047 15.0067 3.23047C17.1897 3.23047 21.8839 3.07812 23.8526 3.75781C25.1651 4.21484 26.1763 5.09961 26.7053 6.2539C27.4888 7.98242 27.308 12.084 27.308 13.9941C27.308 15.9043 27.4888 20.0117 26.7053 21.7344Z" fill="black"/>
</svg>
